<svg width="24" height="20" viewBox="0 0 25 12.5" fill="none" xmlns="http://www.w3.org/2000/svg">
<g filter="url(#filter0_d_104_19)">
<path d="M18.4033 1.36129e-07C18.18 0.000108079 17.9597 0.0783116 17.76 0.228401C17.5603 0.378491 17.3867 0.596334 17.2529 0.864635C17.1192 1.13294 17.029 1.4443 16.9895 1.77402C16.95 2.10374 16.9623 2.44272 17.0254 2.76406L14.7959 6.10717C14.5019 5.96028 14.184 5.96028 13.89 6.10717L12.2372 3.62841C12.2915 3.31013 12.2967 2.97741 12.2522 2.6557C12.2077 2.33398 12.1147 2.03178 11.9804 1.77221C11.8461 1.51263 11.674 1.30256 11.4772 1.15804C11.2804 1.01353 11.0642 0.938396 10.8452 0.938396C10.6261 0.938396 10.4099 1.01353 10.2131 1.15804C10.0164 1.30256 9.84425 1.51263 9.70993 1.77221C9.57561 2.03178 9.48264 2.33398 9.43814 2.6557C9.39364 2.97741 9.39878 3.31013 9.45317 3.62841L6.68887 7.77122C6.38197 7.63499 6.05355 7.65602 5.75551 7.83101C5.45748 8.006 5.20683 8.32496 5.04319 8.73748C4.87955 9.14999 4.81225 9.63253 4.85193 10.1088C4.8916 10.5851 5.03599 11.028 5.26227 11.3675C5.48855 11.7069 5.78382 11.9236 6.1014 11.9833C6.41898 12.0429 6.74076 11.9421 7.01587 11.6969C7.29099 11.4516 7.50375 11.0758 7.62053 10.6289C7.73731 10.182 7.75145 9.68945 7.6607 9.22915L10.39 5.13647C10.684 5.28346 11.0019 5.28346 11.2959 5.13647L12.9491 7.61569C12.8947 7.93397 12.8895 8.26669 12.9341 8.58841C12.9786 8.91012 13.0715 9.21232 13.2058 9.4719C13.3402 9.73147 13.5123 9.94154 13.709 10.0861C13.9058 10.2306 14.122 10.3057 14.3411 10.3057C14.5602 10.3057 14.7763 10.2306 14.9731 10.0861C15.1699 9.94154 15.342 9.73147 15.4763 9.4719C15.6106 9.21232 15.7036 8.91012 15.7481 8.58841C15.7926 8.26669 15.7874 7.93397 15.7331 7.61569L17.9972 4.22198C18.1949 4.30944 18.4028 4.33211 18.6068 4.28845C18.8108 4.2448 19.0062 4.13584 19.1797 3.96897C19.3531 3.80211 19.5007 3.58123 19.6122 3.32134C19.7237 3.06145 19.7967 2.76861 19.8261 2.46271C19.8555 2.15681 19.8407 1.845 19.7827 1.54842C19.7247 1.25185 19.6248 0.977463 19.4899 0.743874C19.3549 0.510285 19.1881 0.322961 19.0006 0.194611C18.8131 0.0662618 18.6094 -0.000109711 18.4033 1.36129e-07V1.36129e-07Z" fill="black"/>
</g>
<defs>
<filter id="filter0_d_104_19" x="0.84082" y="0" width="23" height="20" filterUnits="userSpaceOnUse" color-interpolation-filters="sRGB">
<feFlood flood-opacity="0" result="BackgroundImageFix"/>
<feColorMatrix in="SourceAlpha" type="matrix" values="0 0 0 0 0 0 0 0 0 0 0 0 0 0 0 0 0 0 127 0" result="hardAlpha"/>
<feOffset dy="4"/>
<feGaussianBlur stdDeviation="2"/>
<feComposite in2="hardAlpha" operator="out"/>
<feColorMatrix type="matrix" values="0 0 0 0 0 0 0 0 0 0 0 0 0 0 0 0 0 0 0.25 0"/>
<feBlend mode="normal" in2="BackgroundImageFix" result="effect1_dropShadow_104_19"/>
<feBlend mode="normal" in="SourceGraphic" in2="effect1_dropShadow_104_19" result="shape"/>
</filter>
</defs>
</svg>
