<svg width="16" height="16" viewBox="0 -5 15 20" fill="none" xmlns="http://www.w3.org/2000/svg">
<path fill-rule="evenodd" clip-rule="evenodd" d="M7.51523 11.38C6.16165 11.38 4.78648 10.5746 3.9839 9.50861C0.133425 9.50861 0.0170288 15.022 0.0170288 15.022H15.0125C15.0125 15.022 15.3147 9.48415 10.9846 9.48415C10.183 10.5633 8.86881 11.38 7.51523 11.38V11.38Z" fill="black"/>
<path fill-rule="evenodd" clip-rule="evenodd" d="M10.7405 4.77048C10.7405 6.35676 9.29588 9.39007 7.51239 9.39007C5.7317 9.39007 4.28613 6.35582 4.28613 4.77048C4.28613 3.18515 5.73077 1.89806 7.51239 1.89806C9.29588 1.899 10.7405 3.18609 10.7405 4.77048V4.77048Z" fill="black"/>
<path fill-rule="evenodd" clip-rule="evenodd" d="M12.1805 3.40154C12.1805 3.10423 11.7675 2.86432 11.255 2.86243V2.24994C11.255 2.15868 11.2897 0.0220032 7.5237 0.0220032C3.75958 0.0220032 3.79431 2.15868 3.79431 2.24994V2.88407C3.78493 2.88407 3.77742 2.88125 3.76897 2.88125C3.25926 2.88125 2.84906 3.11741 2.84906 3.41001V6.00112C2.84906 6.29184 3.2602 6.52893 3.76897 6.52893C4.27774 6.52893 4.69076 6.29184 4.69076 6.00112V3.41001C4.69076 3.36955 4.66541 3.33286 4.65039 3.29523V2.58865C4.65039 2.52373 4.38005 0.911108 7.5237 0.911108C10.6683 0.911108 10.3416 2.52373 10.3416 2.58865V3.33286C10.336 3.35638 10.3182 3.37708 10.3182 3.40154V6.05192C10.3182 6.35017 10.734 6.59197 11.2493 6.59197C11.2606 6.59197 11.269 6.58821 11.2803 6.58821V7.55634H10.3566V8.46897H12.1899L12.1805 3.40154V3.40154Z" fill="black"/>
</svg>
