<svg width="20" height="20" viewBox="-5 0 40 30" fill="none" xmlns="http://www.w3.org/2000/svg">
<path d="M15 12.9813C17.4645 12.9813 19.4625 10.9488 19.4625 8.44167C19.4625 5.93451 17.4645 3.90205 15 3.90205C12.5354 3.90205 10.5375 5.93451 10.5375 8.44167C10.5375 10.9488 12.5354 12.9813 15 12.9813Z" fill="#000"/>
<path d="M8.23121 8.89563H8.68121V8.4803C8.68394 7.27257 9.01466 6.08973 9.63595 5.06557C10.2572 4.04141 11.1443 3.21681 12.1968 2.68505C11.8852 1.94574 11.3851 1.30717 10.7496 0.837176C10.114 0.367184 9.36675 0.0833155 8.58718 0.0157213C7.80761 -0.0518729 7.02482 0.0993311 6.32196 0.453274C5.6191 0.807217 5.02241 1.35068 4.59527 2.02595C4.16812 2.70121 3.92648 3.48306 3.89599 4.28846C3.8655 5.09385 4.04732 5.89271 4.42212 6.6002C4.79693 7.30768 5.35072 7.89737 6.02469 8.30663C6.69867 8.7159 7.46765 8.92945 8.24996 8.92461L8.23121 8.89563Z" fill="#000"/>
<path d="M21.3375 8.44167V8.857H21.7875C22.5594 8.84902 23.3149 8.62679 23.9746 8.21372C24.6342 7.80064 25.1736 7.212 25.5359 6.50973C25.8982 5.80747 26.07 5.01757 26.0333 4.22317C25.9966 3.42877 25.7527 2.65926 25.3273 1.99563C24.9019 1.332 24.3107 0.798795 23.6159 0.452144C22.9212 0.105494 22.1486 -0.0417838 21.3795 0.0258137C20.6103 0.0934113 19.8731 0.373384 19.2454 0.836262C18.6176 1.29914 18.1227 1.9278 17.8125 2.65608C18.8653 3.18576 19.7534 4.00827 20.3763 5.03066C20.9992 6.05305 21.3322 7.23456 21.3375 8.44167V8.44167Z" fill="#000"/>
<path d="M19.0219 13.4352C20.8858 13.8154 22.6881 14.4657 24.375 15.367C24.6126 15.5015 24.8278 15.6743 25.0125 15.8789H30V12.5756C30.0009 12.4489 29.9682 12.3244 29.9054 12.2154C29.8426 12.1065 29.7521 12.0173 29.6437 11.9575C27.2139 10.648 24.5109 9.96842 21.7687 9.97741H21.15C20.8251 11.3381 20.0778 12.5522 19.0219 13.4352V13.4352Z" fill="#000"/>
<path d="M4.24689 17.7527C4.24518 17.2663 4.37269 16.7886 4.61561 16.3715C4.85853 15.9544 5.2076 15.6137 5.62501 15.3863C7.31184 14.4851 9.11414 13.8347 10.9781 13.4546C9.92726 12.579 9.18049 11.3758 8.85001 10.0257H8.23126C5.4891 10.0167 2.78612 10.6963 0.356268 12.0058C0.247864 12.0656 0.157383 12.1548 0.094598 12.2637C0.0318129 12.3727 -0.000890926 12.4972 1.8461e-05 12.6239V18.7959H4.24689V17.7527Z" fill="#000"/>
<path d="M18.2438 23.3258H23.8313V24.678H18.2438V23.3258Z" fill="#000"/>
<path d="M28.8844 18.0811H22.4438V17.1152C22.4438 16.8591 22.345 16.6134 22.1692 16.4323C21.9934 16.2511 21.7549 16.1494 21.5063 16.1494C21.2576 16.1494 21.0192 16.2511 20.8433 16.4323C20.6675 16.6134 20.5688 16.8591 20.5688 17.1152V18.0811H18.75V15.3477C17.5166 15.0808 16.2603 14.9417 15 14.9324C12.0411 14.9197 9.12436 15.656 6.50628 17.0766C6.38967 17.1389 6.29205 17.2333 6.22422 17.3492C6.15638 17.4651 6.12098 17.598 6.12191 17.7334V23.1519H12.7875V29.0341C12.7875 29.2903 12.8863 29.536 13.0621 29.7171C13.2379 29.8982 13.4764 30 13.725 30H28.8844C29.133 30 29.3715 29.8982 29.5473 29.7171C29.7231 29.536 29.8219 29.2903 29.8219 29.0341V19.047C29.8219 18.7908 29.7231 18.5451 29.5473 18.364C29.3715 18.1829 29.133 18.0811 28.8844 18.0811ZM27.9469 28.0876H14.6625V20.0129H20.5688V20.8918C20.5688 21.148 20.6675 21.3936 20.8433 21.5748C21.0192 21.7559 21.2576 21.8577 21.5063 21.8577C21.7549 21.8577 21.9934 21.7559 22.1692 21.5748C22.345 21.3936 22.4438 21.148 22.4438 20.8918V20.0129H27.9469V28.0876Z" fill="#000"/>
</svg>
