<svg width="50" height="50" viewBox="0 0 50 50" fill="none" xmlns="http://www.w3.org/2000/svg">
<circle cx="25" cy="25" r="25" fill="#C4C4C4"/>
<path d="M23.4922 21.0801V22H19.2266V21.0801H23.4922ZM19.4492 13.4688V22H18.3184V13.4688H19.4492ZM30.9688 17.4648V18.0039C30.9688 18.6445 30.8887 19.2188 30.7285 19.7266C30.5684 20.2344 30.3379 20.666 30.0371 21.0215C29.7363 21.377 29.375 21.6484 28.9531 21.8359C28.5352 22.0234 28.0664 22.1172 27.5469 22.1172C27.043 22.1172 26.5801 22.0234 26.1582 21.8359C25.7402 21.6484 25.377 21.377 25.0684 21.0215C24.7637 20.666 24.5273 20.2344 24.3594 19.7266C24.1914 19.2188 24.1074 18.6445 24.1074 18.0039V17.4648C24.1074 16.8242 24.1895 16.252 24.3535 15.748C24.5215 15.2402 24.7578 14.8086 25.0625 14.4531C25.3672 14.0938 25.7285 13.8203 26.1465 13.6328C26.5684 13.4453 27.0312 13.3516 27.5352 13.3516C28.0547 13.3516 28.5234 13.4453 28.9414 13.6328C29.3633 13.8203 29.7246 14.0938 30.0254 14.4531C30.3301 14.8086 30.5625 15.2402 30.7227 15.748C30.8867 16.252 30.9688 16.8242 30.9688 17.4648ZM29.8496 18.0039V17.4531C29.8496 16.9453 29.7969 16.4961 29.6914 16.1055C29.5898 15.7148 29.4395 15.3867 29.2402 15.1211C29.041 14.8555 28.7969 14.6543 28.5078 14.5176C28.2227 14.3809 27.8984 14.3125 27.5352 14.3125C27.1836 14.3125 26.8652 14.3809 26.5801 14.5176C26.2988 14.6543 26.0566 14.8555 25.8535 15.1211C25.6543 15.3867 25.5 15.7148 25.3906 16.1055C25.2812 16.4961 25.2266 16.9453 25.2266 17.4531V18.0039C25.2266 18.5156 25.2812 18.9688 25.3906 19.3633C25.5 19.7539 25.6562 20.084 25.8594 20.3535C26.0664 20.6191 26.3105 20.8203 26.5918 20.957C26.877 21.0938 27.1953 21.1621 27.5469 21.1621C27.9141 21.1621 28.2402 21.0938 28.5254 20.957C28.8105 20.8203 29.0508 20.6191 29.2461 20.3535C29.4453 20.084 29.5957 19.7539 29.6973 19.3633C29.7988 18.9688 29.8496 18.5156 29.8496 18.0039ZM23.5742 31.752V34.875C23.4688 35.0312 23.3008 35.207 23.0703 35.4023C22.8398 35.5938 22.5215 35.7617 22.1152 35.9062C21.7129 36.0469 21.1934 36.1172 20.5566 36.1172C20.0371 36.1172 19.5586 36.0273 19.1211 35.8477C18.6875 35.6641 18.3105 35.3984 17.9902 35.0508C17.6738 34.6992 17.4277 34.2734 17.252 33.7734C17.0801 33.2695 16.9941 32.6992 16.9941 32.0625V31.4004C16.9941 30.7637 17.0684 30.1953 17.2168 29.6953C17.3691 29.1953 17.5918 28.7715 17.8848 28.4238C18.1777 28.0723 18.5371 27.8066 18.9629 27.627C19.3887 27.4434 19.877 27.3516 20.4277 27.3516C21.0801 27.3516 21.625 27.4648 22.0625 27.6914C22.5039 27.9141 22.8477 28.2227 23.0938 28.6172C23.3438 29.0117 23.5039 29.4609 23.5742 29.9648H22.4434C22.3926 29.6562 22.291 29.375 22.1387 29.1211C21.9902 28.8672 21.7773 28.6641 21.5 28.5117C21.2227 28.3555 20.8652 28.2773 20.4277 28.2773C20.0332 28.2773 19.6914 28.3496 19.4023 28.4941C19.1133 28.6387 18.875 28.8457 18.6875 29.1152C18.5 29.3848 18.3594 29.7109 18.2656 30.0938C18.1758 30.4766 18.1309 30.9082 18.1309 31.3887V32.0625C18.1309 32.5547 18.1875 32.9941 18.3008 33.3809C18.418 33.7676 18.584 34.0977 18.7988 34.3711C19.0137 34.6406 19.2695 34.8457 19.5664 34.9863C19.8672 35.127 20.1992 35.1973 20.5625 35.1973C20.9648 35.1973 21.291 35.1641 21.541 35.0977C21.791 35.0273 21.9863 34.9453 22.127 34.8516C22.2676 34.7539 22.375 34.6621 22.4492 34.5762V32.666H20.4746V31.752H23.5742ZM32.0176 31.4648V32.0039C32.0176 32.6445 31.9375 33.2188 31.7773 33.7266C31.6172 34.2344 31.3867 34.666 31.0859 35.0215C30.7852 35.377 30.4238 35.6484 30.002 35.8359C29.584 36.0234 29.1152 36.1172 28.5957 36.1172C28.0918 36.1172 27.6289 36.0234 27.207 35.8359C26.7891 35.6484 26.4258 35.377 26.1172 35.0215C25.8125 34.666 25.5762 34.2344 25.4082 33.7266C25.2402 33.2188 25.1562 32.6445 25.1562 32.0039V31.4648C25.1562 30.8242 25.2383 30.252 25.4023 29.748C25.5703 29.2402 25.8066 28.8086 26.1113 28.4531C26.416 28.0938 26.7773 27.8203 27.1953 27.6328C27.6172 27.4453 28.0801 27.3516 28.584 27.3516C29.1035 27.3516 29.5723 27.4453 29.9902 27.6328C30.4121 27.8203 30.7734 28.0938 31.0742 28.4531C31.3789 28.8086 31.6113 29.2402 31.7715 29.748C31.9355 30.252 32.0176 30.8242 32.0176 31.4648ZM30.8984 32.0039V31.4531C30.8984 30.9453 30.8457 30.4961 30.7402 30.1055C30.6387 29.7148 30.4883 29.3867 30.2891 29.1211C30.0898 28.8555 29.8457 28.6543 29.5566 28.5176C29.2715 28.3809 28.9473 28.3125 28.584 28.3125C28.2324 28.3125 27.9141 28.3809 27.6289 28.5176C27.3477 28.6543 27.1055 28.8555 26.9023 29.1211C26.7031 29.3867 26.5488 29.7148 26.4395 30.1055C26.3301 30.4961 26.2754 30.9453 26.2754 31.4531V32.0039C26.2754 32.5156 26.3301 32.9688 26.4395 33.3633C26.5488 33.7539 26.7051 34.084 26.9082 34.3535C27.1152 34.6191 27.3594 34.8203 27.6406 34.957C27.9258 35.0938 28.2441 35.1621 28.5957 35.1621C28.9629 35.1621 29.2891 35.0938 29.5742 34.957C29.8594 34.8203 30.0996 34.6191 30.2949 34.3535C30.4941 34.084 30.6445 33.7539 30.7461 33.3633C30.8477 32.9688 30.8984 32.5156 30.8984 32.0039Z" fill="black"/>
</svg>
